<svg width="83" height="85" viewBox="0 0 83 85" fill="none" xmlns="http://www.w3.org/2000/svg">
<g clip-path="url(#clip0_11_3173)">
<path d="M44.3006 44.0271C44.3205 44.5113 44.4595 44.9693 44.7176 45.3815C44.9393 45.7414 45.5053 45.3979 45.2835 45.0413C45.0883 44.7239 44.979 44.3869 44.9658 44.0172C44.946 43.5952 44.2841 43.6083 44.3006 44.0271Z" fill="#46A358"/>
<path d="M52.8094 43.9845C52.7763 44.1677 52.7399 44.3476 52.7068 44.5308C52.6737 44.7042 52.7664 44.8842 52.9451 44.93C53.1106 44.9725 53.3158 44.8678 53.3489 44.6944C53.382 44.5112 53.4184 44.3313 53.4515 44.1481C53.4846 43.9747 53.3919 43.7947 53.2132 43.7489C53.0477 43.7064 52.8425 43.8111 52.8094 43.9845Z" fill="#46A358"/>
<path d="M57.3401 44.6355C57.767 44.6257 57.7538 43.9714 57.3268 43.9812C56.8999 43.991 56.9131 44.6453 57.3401 44.6355Z" fill="#46A358"/>
<path d="M32.4827 45.7937C32.9096 45.7839 32.8963 45.1296 32.4694 45.1394C32.0425 45.1492 32.0557 45.8035 32.4827 45.7937Z" fill="#46A358"/>
<path d="M44.5886 4.38731C42.0336 11.8369 40.6403 19.6399 40.4881 27.5083C40.412 31.4638 40.6469 35.4225 41.193 39.342C41.4445 41.1479 41.7623 42.9474 42.1462 44.7304C42.4473 46.1242 42.6029 47.7175 43.6487 48.7808C44.0955 49.2355 44.7805 48.5256 44.3371 48.0741C43.2085 46.9257 43.0927 44.4981 42.8014 42.9964C42.4341 41.0989 42.1428 39.1849 41.9277 37.2612C41.5207 33.6231 41.385 29.9588 41.514 26.301C41.7755 18.9201 43.1556 11.621 45.5516 4.62941C45.7568 4.03069 44.7905 3.79186 44.5886 4.38731Z" fill="#46A358"/>
<path d="M48.4409 4.52141C49.7779 11.9645 49.811 19.5712 50.0791 27.1058C50.2048 30.6458 50.4199 34.1956 50.3471 37.7388C50.271 41.4162 49.5462 44.8744 48.5699 48.4078C48.4011 49.0196 49.3642 49.2584 49.533 48.6499C50.4497 45.3422 51.1778 42.0771 51.3168 38.6353C51.4724 34.791 51.2109 30.9272 51.0752 27.0895C50.8038 19.4632 50.7476 11.778 49.394 4.24332C49.2815 3.6217 48.3283 3.90307 48.4409 4.52141Z" fill="#46A358"/>
<path d="M55.6293 17.3105C56.0827 27.4952 56.4931 37.8043 53.9779 47.7796C53.8223 48.3947 54.7854 48.6336 54.9409 48.0217C57.476 37.9613 57.0822 27.5606 56.6222 17.2908C56.5924 16.6594 55.5995 16.6758 55.6293 17.3105Z" fill="#46A358"/>
<path d="M52.8226 17.4609C51.4161 19.0869 50.4762 20.978 50.0625 23.0817C49.94 23.7 50.9031 23.9454 51.0256 23.3238C51.4062 21.3804 52.2368 19.6464 53.5375 18.1414C53.9512 17.6605 53.2396 16.98 52.8226 17.4609Z" fill="#46A358"/>
<path d="M62.6056 23.7164C62.5825 31.0908 61.583 38.3965 59.6238 45.5124C59.455 46.1242 60.4181 46.363 60.5868 45.7545C62.5659 38.5568 63.5753 31.1562 63.5985 23.6968C63.5985 23.0654 62.6056 23.085 62.6056 23.7164Z" fill="#46A358"/>
<path d="M60.7193 21.5211C58.1511 24.4624 56.8902 28.0841 55.9834 31.8106C55.8344 32.4257 56.7975 32.6678 56.9464 32.0527C57.8135 28.5029 58.9851 25.012 61.4375 22.2017C61.8511 21.724 61.1363 21.0402 60.7193 21.5211Z" fill="#46A358"/>
<path d="M36.7552 10.4171C38.5225 14.5329 39.8066 18.7991 40.6009 23.1995C40.7134 23.8212 41.6632 23.5365 41.554 22.9182C40.7597 18.5178 39.4723 14.2515 37.7084 10.1357C37.4602 9.56317 36.507 9.83472 36.7552 10.4171Z" fill="#46A358"/>
<path d="M34.9151 10.7736C34.3955 17.0193 33.8859 23.3434 34.9383 29.5662C36.0404 36.0572 38.7475 42.3912 40.8292 48.6237C41.0278 49.2224 41.9809 48.9443 41.7824 48.3423C39.7669 42.2995 37.1623 36.1553 35.9973 29.8868C34.8258 23.5757 35.3785 17.101 35.908 10.754C35.9609 10.1258 34.9681 10.1487 34.9151 10.7736Z" fill="#46A358"/>
<path d="M28.5969 25.8626C31.9097 28.9118 34.5937 32.4779 36.6059 36.4858C36.8905 37.0518 37.7345 36.5348 37.4532 35.9721C35.4046 31.8923 32.6577 28.2575 29.2853 25.1526C28.8186 24.7241 28.1303 25.4307 28.5969 25.8626Z" fill="#46A358"/>
<path d="M26.3233 27.1222C28.8882 34.6995 32.34 41.9364 36.6258 48.7088C36.9634 49.2454 37.8139 48.735 37.4731 48.1951C33.2303 41.4915 29.8148 34.3396 27.2764 26.8409C27.0746 26.2454 26.1214 26.5203 26.3233 27.1222Z" fill="#46A358"/>
<path d="M32.0687 46.7621C30.6059 44.1775 28.4613 42.028 25.7939 40.6604C25.2511 40.3823 24.7315 40.4543 25.7839 40.3496C26.1678 40.3104 26.565 40.294 26.9489 40.3005C28.1999 40.3136 29.3317 40.5361 30.4073 41.2068C31.6583 41.9855 32.7505 43.1044 33.8691 44.0564C34.3523 44.4687 35.0406 43.762 34.5575 43.3498C33.141 42.1392 31.7378 40.6277 30.0003 39.8752C29.0306 39.4532 27.9815 39.3288 26.929 39.3256C26.2605 39.3223 24.8705 39.198 24.3112 39.7607C23.2191 40.8535 25.3107 41.498 25.9626 41.8808C28.1999 43.1829 29.9605 45.0543 31.2215 47.2856C31.5326 47.8287 32.3798 47.315 32.0687 46.7621Z" fill="#46A358"/>
<path d="M62.2814 38.7923C63.2511 36.6559 65.5048 35.9852 67.6494 35.5403C67.9638 35.4749 68.0896 35.0626 67.9307 34.814C66.7658 32.9949 64.6444 32.8084 62.6554 32.9884C62.0232 33.044 62.0365 34.0255 62.6752 33.9699C64.2803 33.8259 66.1171 33.8161 67.0835 35.3276C67.1762 35.0855 67.2721 34.8434 67.3648 34.6013C64.9753 35.0953 62.4833 35.9492 61.4143 38.3147C61.1528 38.8872 62.0199 39.3682 62.2814 38.7923Z" fill="#46A358"/>
<path d="M28.4318 24.9138C27.9949 25.4831 27.5051 26.193 26.7803 26.4221C26.0655 26.6478 25.301 26.3239 25.3572 25.47C25.4003 24.8026 25.9794 24.3151 26.542 24.037C27.1973 23.7131 28.9944 23.5593 28.5178 24.8026C28.2928 25.3948 29.2558 25.627 29.4809 25.0447C29.9409 23.844 28.8355 22.7938 27.664 22.7709C26.4328 22.748 24.9998 23.5561 24.5365 24.711C24.1029 25.7808 24.5563 27.1189 25.761 27.4232C27.2337 27.7929 28.349 26.638 29.1499 25.5976C29.5305 25.0938 28.819 24.41 28.4318 24.9138Z" fill="#46A358"/>
<path d="M36.9968 9.6809C36.3779 9.7954 35.4811 10.1945 34.8622 9.86738C34.2433 9.53694 34.3558 8.71575 34.7133 8.24135C35.0872 7.74733 35.6763 7.56739 36.272 7.73097C36.7552 7.86511 38.2611 9.11489 37.2119 9.54676C36.6295 9.78559 36.9042 10.7311 37.4966 10.489C38.7376 9.97862 38.6946 8.55871 37.897 7.64591C37.0928 6.72329 35.6532 6.37322 34.5776 7.04392C33.6377 7.63282 33.1148 8.91532 33.6244 9.94263C34.3459 11.4018 36.0338 10.8522 37.2814 10.6231C37.9069 10.5054 37.619 9.56311 36.9968 9.6809Z" fill="#46A358"/>
<path d="M48.7917 3.6937C47.9312 3.9129 46.9285 4.17136 46.0415 3.9587C44.7938 3.66425 44.7475 2.25089 45.6245 1.51803C46.3261 0.932397 47.4017 0.866963 48.2523 1.12215C48.7884 1.28247 49.4172 1.62927 49.5628 2.21162C49.7018 2.758 49.4338 3.29782 48.8778 3.43196C48.2589 3.58246 48.5402 4.5247 49.1624 4.37421C50.6417 4.01432 50.9661 2.19199 50.0559 1.11888C49.03 -0.0883685 46.9715 -0.294485 45.5914 0.372939C44.2941 1.0011 43.5031 2.68929 44.3669 3.97833C45.3664 5.47349 47.6201 5.00237 49.073 4.6294C49.6919 4.47563 49.4106 3.53338 48.7917 3.6937Z" fill="#46A358"/>
<path d="M55.8707 13.3419C54.4443 13.09 52.8822 13.4989 52.2302 14.8959C51.7007 16.0279 52.2004 17.4969 53.4316 17.9222C54.6726 18.3508 56.5557 17.8208 57.2441 16.6823C57.9027 15.5863 57.4261 14.1958 56.387 13.5414C55.8475 13.2012 55.3676 14.0616 55.9038 14.3986C56.5723 14.8174 56.7907 15.7695 56.2446 16.3813C55.7581 16.9276 54.719 17.1599 54.014 17.0356C53.1072 16.8753 52.7564 15.9363 53.2098 15.1609C53.7062 14.3136 54.7289 14.1369 55.6291 14.2939C56.2546 14.4052 56.4995 13.4531 55.8707 13.3419Z" fill="#46A358"/>
<path d="M63.5656 18.7663C62.3113 18.6845 60.5738 18.8612 60.2958 20.3793C60.0674 21.6225 61.4971 23.2649 62.5926 23.7066C65.7201 24.9662 66.3886 18.6845 63.6913 18.8514C63.0559 18.8906 63.0724 19.8721 63.7112 19.8329C64.5882 19.7773 64.3731 21.8286 64.1745 22.2343C63.7079 23.1995 62.8143 22.8461 62.2252 22.231C61.7718 21.7566 60.9577 20.9158 61.4276 20.2353C61.881 19.581 62.8937 19.7053 63.5854 19.7478C64.2242 19.7904 64.1977 18.8089 63.5656 18.7663Z" fill="#46A358"/>
<path d="M45.6379 6.17685C45.5386 6.50729 45.436 6.83773 45.3367 7.16817C45.2143 7.57386 45.8563 7.7309 45.9788 7.32849C46.0781 6.99805 46.1807 6.66761 46.28 6.33717C46.4024 5.93148 45.7604 5.77444 45.6379 6.17685Z" fill="#46A358"/>
<path d="M47.0508 6.23258C47.0541 6.45178 47.0608 6.66771 47.0641 6.88692C47.074 7.30896 47.7359 7.29588 47.726 6.87383C47.7227 6.65463 47.716 6.43869 47.7127 6.21949C47.7061 5.79744 47.0442 5.81053 47.0508 6.23258Z" fill="#46A358"/>
<path d="M46.5808 10.1683C47.0077 10.1585 46.9945 9.50415 46.5675 9.51396C46.1439 9.52051 46.1571 10.1748 46.5808 10.1683Z" fill="#46A358"/>
<path d="M44.6053 10.5348C44.5755 10.8979 44.5457 11.2643 44.5192 11.6275C44.506 11.8042 44.6913 11.9514 44.8568 11.9481C45.0521 11.9448 45.1679 11.7911 45.1811 11.6144C45.2109 11.2513 45.2407 10.8848 45.2672 10.5217C45.2804 10.345 45.0951 10.1978 44.9296 10.201C44.7343 10.2043 44.6185 10.3581 44.6053 10.5348Z" fill="#46A358"/>
<path d="M46.1705 11.5948C46.1804 11.9939 46.1871 12.3931 46.197 12.7955C46.2069 13.2175 46.8688 13.2044 46.8589 12.7824C46.849 12.3832 46.8424 11.9841 46.8324 11.5817C46.8225 11.1596 46.1606 11.1727 46.1705 11.5948Z" fill="#46A358"/>
<path d="M47.3419 9.27847C47.3849 9.60564 47.4279 9.9328 47.471 10.2567C47.4941 10.4334 47.6166 10.5806 47.8085 10.5773C47.9707 10.5741 48.156 10.4203 48.1329 10.2436C48.0898 9.91645 48.0468 9.58928 48.0038 9.26538C47.9806 9.08871 47.8582 8.94148 47.6662 8.94476C47.5008 8.94803 47.3154 9.1018 47.3419 9.27847Z" fill="#46A358"/>
<path d="M47.4381 14.186C47.4414 14.3692 47.4447 14.5492 47.448 14.7324C47.458 15.1544 48.1199 15.1413 48.1099 14.7193C48.1066 14.5361 48.1033 14.3561 48.1 14.1729C48.0901 13.7509 47.4282 13.764 47.4381 14.186Z" fill="#46A358"/>
<path d="M46.005 8.86957C45.9719 9.19347 46.0447 9.49773 46.1804 9.79218C46.2532 9.9525 46.4981 9.98521 46.6371 9.90015C46.8059 9.79873 46.8191 9.61224 46.7463 9.44866C46.6603 9.26217 46.647 9.05605 46.6669 8.85321C46.6835 8.67654 46.4915 8.52931 46.3293 8.53259C46.1341 8.53913 46.0215 8.6929 46.005 8.86957Z" fill="#46A358"/>
<path d="M43.6951 14.0649C43.6289 14.4313 43.5627 14.7945 43.4965 15.1609C43.4204 15.5731 44.0624 15.7367 44.1385 15.3212C44.2047 14.9548 44.2709 14.5916 44.3371 14.2252C44.4099 13.813 43.7712 13.6494 43.6951 14.0649Z" fill="#46A358"/>
<path d="M45.5188 16.3223C45.489 16.5775 45.4559 16.8327 45.4261 17.0879C45.4063 17.2645 45.4758 17.4379 45.6644 17.487C45.82 17.5263 46.045 17.4281 46.0682 17.2515C46.098 16.9963 46.131 16.7411 46.1608 16.4859C46.1807 16.3092 46.1112 16.1358 45.9225 16.0867C45.767 16.0442 45.542 16.1456 45.5188 16.3223Z" fill="#46A358"/>
<path d="M44.9359 20.978C44.9888 21.2561 44.9557 21.5277 44.8664 21.7927C44.7307 22.1918 45.3727 22.3521 45.5084 21.953C45.6375 21.5735 45.6474 21.1841 45.5713 20.7915C45.5382 20.6181 45.3198 20.5233 45.1609 20.5723C44.9723 20.628 44.8995 20.8046 44.9359 20.978Z" fill="#46A358"/>
<path d="M42.9138 18.3378C42.884 18.593 42.8509 18.8482 42.8211 19.1034C42.8013 19.28 42.8708 19.4534 43.0594 19.5025C43.215 19.5418 43.44 19.4436 43.4632 19.2669C43.493 19.0117 43.5261 18.7566 43.5559 18.5014C43.5757 18.3247 43.5062 18.1513 43.3176 18.1022C43.1587 18.063 42.9337 18.1611 42.9138 18.3378Z" fill="#46A358"/>
<path d="M47.4216 18.8579C47.501 19.2211 47.5772 19.5842 47.6566 19.9441C47.7459 20.3564 48.3814 20.1666 48.292 19.7576C48.2126 19.3945 48.1365 19.0313 48.057 18.6714C47.9677 18.2592 47.3356 18.4457 47.4216 18.8579Z" fill="#46A358"/>
<path d="M47.855 23.6673C47.8616 24.0305 47.8716 24.3936 47.8782 24.7568C47.8881 25.1788 48.55 25.1658 48.5401 24.7437C48.5335 24.3806 48.5236 24.0174 48.5169 23.6542C48.5103 23.2322 47.8484 23.2453 47.855 23.6673Z" fill="#46A358"/>
<path d="M47.0739 28.4637C47.117 28.7189 47.1567 28.9708 47.1997 29.226C47.2295 29.3994 47.4545 29.491 47.6101 29.4452C47.7987 29.3896 47.8616 29.2129 47.8318 29.0395C47.7888 28.7843 47.7491 28.5324 47.7061 28.2772C47.6763 28.1038 47.4512 28.0122 47.2957 28.058C47.107 28.1103 47.0442 28.287 47.0739 28.4637Z" fill="#46A358"/>
<path d="M44.3736 26.0295C44.3769 26.2487 44.3835 26.4647 44.3868 26.6839C44.3968 27.1059 45.0587 27.0928 45.0487 26.6708C45.0454 26.4516 45.0388 26.2356 45.0355 26.0164C45.0289 25.5944 44.367 25.6075 44.3736 26.0295Z" fill="#46A358"/>
<path d="M42.5498 23.2289C42.573 23.5004 42.5465 23.7556 42.4671 24.0174C42.3447 24.423 42.9867 24.5801 43.1092 24.1777C43.2051 23.8669 43.2382 23.5397 43.2117 23.2158C43.1753 22.8003 42.5134 22.8101 42.5498 23.2289Z" fill="#46A358"/>
<path d="M43.3804 30.7604C43.3473 31.0156 43.3175 31.2708 43.2844 31.526C43.2613 31.7026 43.3341 31.876 43.5227 31.9251C43.6783 31.9644 43.9033 31.8662 43.9265 31.6895C43.9596 31.4343 43.9894 31.1792 44.0225 30.924C44.0456 30.7473 43.9728 30.5739 43.7842 30.5248C43.6253 30.4856 43.4036 30.5837 43.3804 30.7604Z" fill="#46A358"/>
<path d="M46.7565 34.4672C46.7995 34.6832 46.8392 34.9024 46.8822 35.1183C46.9153 35.2917 47.1338 35.3866 47.2926 35.3375C47.478 35.2819 47.5475 35.1052 47.5144 34.9318C47.4713 34.7159 47.4316 34.4967 47.3886 34.2807C47.3555 34.1073 47.1371 34.0125 46.9782 34.0615C46.7929 34.1172 46.7234 34.2938 46.7565 34.4672Z" fill="#46A358"/>
<path d="M44.9657 38.2133C45.0452 38.5764 45.1279 38.9363 45.2073 39.2995C45.3 39.7117 45.9321 39.5219 45.8428 39.113C45.7633 38.7498 45.6806 38.3899 45.6012 38.0268C45.5085 37.6145 44.8731 37.801 44.9657 38.2133Z" fill="#46A358"/>
<path d="M48.6595 40.5819C48.59 40.8371 48.5238 41.0923 48.4543 41.3507C48.3451 41.7597 48.9872 41.92 49.0964 41.511C49.1659 41.2558 49.2321 41.0006 49.3016 40.7422C49.4108 40.3332 48.7688 40.1729 48.6595 40.5819Z" fill="#46A358"/>
<path d="M48.166 12.1871C48.2091 12.4423 48.2521 12.6942 48.2951 12.9494C48.3249 13.1228 48.5499 13.2144 48.7055 13.1686C48.8941 13.113 48.957 12.9363 48.9272 12.7629C48.8842 12.5077 48.8412 12.2558 48.7981 12.0006C48.7684 11.8272 48.5433 11.7356 48.3878 11.7814C48.2024 11.837 48.1362 12.0137 48.166 12.1871Z" fill="#46A358"/>
<path d="M48.2457 16.679C48.292 17.0061 48.3383 17.33 48.3847 17.6572C48.4111 17.8306 48.527 17.9811 48.7222 17.9778C48.8844 17.9746 49.0697 17.8208 49.0466 17.6441C49.0002 17.317 48.9539 16.9931 48.9076 16.6659C48.8811 16.4925 48.7653 16.342 48.57 16.3453C48.4078 16.3485 48.2192 16.5056 48.2457 16.679Z" fill="#46A358"/>
<path d="M53.2097 20.3106C53.1204 20.8243 53.0277 21.3347 52.9384 21.8483C52.8656 22.2605 53.5076 22.4241 53.5804 22.0086C53.6698 21.495 53.7624 20.9846 53.8518 20.4709C53.9246 20.0587 53.2826 19.8951 53.2097 20.3106Z" fill="#46A358"/>
<path d="M54.4971 19.388C54.5037 19.6432 54.507 19.8984 54.5137 20.1503C54.5236 20.5724 55.1855 20.5593 55.1756 20.1373C55.1689 19.8821 55.1656 19.6269 55.159 19.3749C55.1491 18.9529 54.4905 18.966 54.4971 19.388Z" fill="#46A358"/>
<path d="M54.1364 22.8854C54.0735 23.4318 54.0139 23.9781 53.9511 24.5245C53.9047 24.9433 54.5666 24.9237 54.613 24.5114C54.6758 23.9651 54.7354 23.4187 54.7983 22.8723C54.8446 22.4568 54.1827 22.4732 54.1364 22.8854Z" fill="#46A358"/>
<path d="M52.4224 23.844C52.2801 24.1384 52.1411 24.4329 51.9988 24.724C51.8168 25.1036 52.396 25.4242 52.578 25.0414C52.7203 24.7469 52.8593 24.4525 53.0016 24.1613C53.1836 23.7818 52.6045 23.4612 52.4224 23.844Z" fill="#46A358"/>
<path d="M51.4263 22.0937C51.3403 22.3162 51.2575 22.5354 51.1715 22.7579C51.1086 22.9247 51.2509 23.1145 51.4097 23.157C51.5984 23.2061 51.7473 23.085 51.8135 22.9215C51.8996 22.699 51.9823 22.4798 52.0683 22.2573C52.1312 22.0904 51.9889 21.9007 51.8301 21.8582C51.6414 21.8091 51.4925 21.9269 51.4263 22.0937Z" fill="#46A358"/>
<path d="M53.316 26.3926C53.3028 26.6838 53.2928 26.975 53.2796 27.2662C53.2631 27.6882 53.925 27.6719 53.9415 27.2531C53.9547 26.9619 53.9647 26.6707 53.9779 26.3795C53.9945 25.9575 53.3326 25.9739 53.316 26.3926Z" fill="#46A358"/>
<path d="M54.6729 28.1103C54.6597 28.3818 54.6464 28.6566 54.6332 28.9282C54.6233 29.1048 54.802 29.2521 54.9708 29.2488C55.1594 29.2455 55.2852 29.0918 55.2951 28.9151C55.3084 28.6435 55.3216 28.3687 55.3348 28.0972C55.3448 27.9205 55.166 27.7733 54.9973 27.7765C54.8086 27.7798 54.6829 27.9336 54.6729 28.1103Z" fill="#46A358"/>
<path d="M54.1499 31.0351C54.1201 31.2707 54.087 31.5095 54.0573 31.7451C54.0341 31.9185 54.1102 32.0952 54.2955 32.1442C54.4544 32.1835 54.6761 32.0853 54.6993 31.9087C54.7291 31.6731 54.7622 31.4343 54.792 31.1987C54.8151 31.0253 54.739 30.8487 54.5537 30.7996C54.3948 30.757 54.1731 30.8585 54.1499 31.0351Z" fill="#46A358"/>
<path d="M51.6808 29.0133C51.6477 29.2129 51.6146 29.4158 51.5815 29.6153C51.5517 29.7887 51.6377 29.9654 51.8198 30.0145C51.9819 30.0537 52.1937 29.9523 52.2235 29.7789C52.2566 29.5793 52.2897 29.3765 52.3228 29.1769C52.3526 29.0035 52.2665 28.8269 52.0845 28.7778C51.9224 28.7353 51.7105 28.8367 51.6808 29.0133Z" fill="#46A358"/>
<path d="M52.1573 34.2152C52.1606 34.3592 52.164 34.5064 52.1673 34.6504C52.1772 35.0724 52.8391 35.0593 52.8292 34.6373C52.8259 34.4933 52.8225 34.3461 52.8192 34.2022C52.8093 33.7801 52.1474 33.7932 52.1573 34.2152Z" fill="#46A358"/>
<path d="M54.2955 36.1357C54.2988 36.2796 54.3021 36.4268 54.3054 36.5708C54.3154 36.9928 54.9773 36.9797 54.9674 36.5577C54.964 36.4137 54.9607 36.2665 54.9574 36.1226C54.9475 35.7005 54.2856 35.7136 54.2955 36.1357Z" fill="#46A358"/>
<path d="M52.3894 40.1011C52.4158 40.3563 52.3894 40.5918 52.3066 40.8339C52.2504 41.0008 52.3827 41.1905 52.5449 41.2331C52.7302 41.2789 52.8891 41.1644 52.9487 40.9975C53.048 40.7063 53.0844 40.3955 53.0513 40.0912C53.0314 39.9146 52.9023 39.7674 52.7137 39.7706C52.5449 39.7706 52.3695 39.9244 52.3894 40.1011Z" fill="#46A358"/>
<path d="M53.2065 18.6518C53.1205 18.8186 53.0311 18.9855 52.9451 19.1491C52.7498 19.522 53.3257 19.8427 53.5243 19.4664C53.6103 19.2996 53.6997 19.1327 53.7857 18.9691C53.981 18.5962 53.4051 18.2755 53.2065 18.6518Z" fill="#46A358"/>
<path d="M36.0399 12.4324C36.0995 12.776 36.1624 13.1228 36.2219 13.4663C36.2517 13.6397 36.4768 13.7313 36.6323 13.6855C36.821 13.6299 36.8871 13.4532 36.854 13.2798C36.7945 12.9363 36.7316 12.5895 36.672 12.2459C36.6422 12.0725 36.4172 11.9809 36.2616 12.0267C36.073 12.0824 36.0068 12.259 36.0399 12.4324Z" fill="#46A358"/>
<path d="M37.0265 14.595C37.1787 14.9549 37.3343 15.3181 37.4865 15.678C37.556 15.8416 37.7149 15.9528 37.8969 15.8972C38.0524 15.8514 38.1881 15.6551 38.1186 15.4915C37.9664 15.1316 37.8108 14.7684 37.6586 14.4086C37.5891 14.245 37.4303 14.1337 37.2482 14.1894C37.0927 14.2352 36.957 14.4315 37.0265 14.595Z" fill="#46A358"/>
<path d="M36.1228 15.8023C36.0467 16.3061 36.0533 16.787 36.1427 17.2843C36.2155 17.6966 36.8476 17.5101 36.7781 17.0978C36.7119 16.7249 36.7119 16.3388 36.7682 15.9626C36.8244 15.5503 36.1824 15.3868 36.1228 15.8023Z" fill="#46A358"/>
<path d="M37.3805 17.6932C37.493 18.0008 37.6022 18.3116 37.7148 18.6191C37.8571 19.015 38.4925 18.8318 38.3502 18.4326C38.2377 18.1251 38.1284 17.8143 38.0159 17.5067C37.8736 17.1109 37.2382 17.2941 37.3805 17.6932Z" fill="#46A358"/>
<path d="M35.8414 19.0019C35.848 19.3651 35.8579 19.7282 35.8645 20.0914C35.8745 20.5134 36.5364 20.5004 36.5264 20.0783C36.5198 19.7152 36.5099 19.352 36.5033 18.9888C36.4966 18.5668 35.8347 18.5799 35.8414 19.0019Z" fill="#46A358"/>
<path d="M37.0826 20.2321C37.0892 20.5593 37.0959 20.8864 37.1025 21.2136C37.1124 21.6356 37.7743 21.6226 37.7644 21.2005C37.7578 20.8733 37.7512 20.5462 37.7445 20.219C37.7346 19.797 37.0727 19.81 37.0826 20.2321Z" fill="#46A358"/>
<path d="M38.9328 20.8799C39.0652 21.2594 39.2009 21.6389 39.3333 22.0184C39.4723 22.4143 40.1077 22.2311 39.9687 21.8319C39.8363 21.4524 39.7006 21.0729 39.5683 20.6934C39.4293 20.2975 38.7938 20.4807 38.9328 20.8799Z" fill="#46A358"/>
<path d="M39.6573 24.1384C39.697 24.3379 39.74 24.5375 39.7798 24.7371C39.8162 24.9105 40.0313 25.0054 40.1901 24.9563C40.3755 24.9007 40.4483 24.724 40.4119 24.5506C40.3722 24.351 40.3291 24.1515 40.2894 23.9519C40.253 23.7785 40.0379 23.6836 39.879 23.7327C39.697 23.785 39.6209 23.965 39.6573 24.1384Z" fill="#46A358"/>
<path d="M37.8405 24.1744C37.9497 24.4819 38.0291 24.796 38.0655 25.1199C38.0854 25.2965 38.2144 25.4438 38.4031 25.4405C38.5686 25.4372 38.7473 25.2835 38.7274 25.1068C38.6844 24.724 38.605 24.351 38.4759 23.9879C38.3336 23.592 37.6981 23.7752 37.8405 24.1744Z" fill="#46A358"/>
<path d="M36.1426 22.869C36.1492 23.1242 36.1526 23.3794 36.1592 23.6313C36.1691 24.0533 36.831 24.0403 36.8211 23.6182C36.8145 23.363 36.8111 23.1078 36.8045 22.8559C36.7946 22.4339 36.136 22.4469 36.1426 22.869Z" fill="#46A358"/>
<path d="M36.9404 26.7786C36.9669 27.1058 37.0298 27.4264 37.139 27.734C37.2813 28.1298 37.9167 27.9466 37.7744 27.5475C37.6818 27.2923 37.6222 27.0338 37.6023 26.7656C37.5725 26.3468 36.9106 26.3599 36.9404 26.7786Z" fill="#46A358"/>
<path d="M38.3898 29.5629C38.4494 29.7625 38.5089 29.9621 38.5685 30.1584C38.6877 30.5608 39.3231 30.3776 39.2039 29.9719C39.1444 29.7723 39.0848 29.576 39.0252 29.3765C38.9061 28.974 38.2707 29.1573 38.3898 29.5629Z" fill="#46A358"/>
<path d="M39.1676 27.0372C39.2073 27.1812 39.247 27.3251 39.2867 27.4723C39.3993 27.878 40.0347 27.6915 39.9222 27.2859C39.8824 27.1419 39.8427 26.9979 39.803 26.8507C39.6905 26.445 39.0551 26.6315 39.1676 27.0372Z" fill="#46A358"/>
<path d="M37.291 32.4779C37.3737 32.8018 37.4531 33.129 37.5359 33.4529C37.6385 33.8618 38.2739 33.6753 38.1713 33.2664C38.0885 32.9425 38.0091 32.6153 37.9264 32.2914C37.8238 31.8824 37.1884 32.0689 37.291 32.4779Z" fill="#46A358"/>
<path d="M38.9362 37.2416C38.9958 37.3855 39.052 37.5295 39.1116 37.6735C39.1778 37.837 39.34 37.9483 39.522 37.8927C39.6808 37.8468 39.8099 37.6505 39.7437 37.487C39.6841 37.343 39.6279 37.1991 39.5683 37.0551C39.5021 36.8915 39.34 36.7803 39.1579 36.8359C38.9991 36.8817 38.87 37.078 38.9362 37.2416Z" fill="#46A358"/>
<path d="M60.4811 23.6836C60.3057 24.0337 60.1269 24.3805 59.9515 24.7306C59.7596 25.1068 60.3388 25.4275 60.5307 25.0479C60.7061 24.6979 60.8848 24.3511 61.0602 24.001C61.2522 23.6247 60.673 23.3074 60.4811 23.6836Z" fill="#46A358"/>
<path d="M61.4078 24.5049C61.3251 24.8353 61.239 25.1625 61.1563 25.4929C61.0504 25.9019 61.6924 26.0622 61.7983 25.6532C61.8811 25.3228 61.9671 24.9956 62.0499 24.6652C62.1524 24.2595 61.5104 24.0992 61.4078 24.5049Z" fill="#46A358"/>
<path d="M60.5936 27.6326C60.5109 27.9074 60.4282 28.1823 60.3421 28.4571C60.2197 28.8628 60.8617 29.0198 60.9842 28.6174C61.0669 28.3426 61.1496 28.0678 61.2357 27.7929C61.3548 27.3905 60.7128 27.2302 60.5936 27.6326Z" fill="#46A358"/>
<path d="M60.0374 26.3076C59.9679 26.4352 59.895 26.566 59.8255 26.6936C59.6204 27.0633 60.1995 27.384 60.4047 27.011C60.4742 26.8834 60.547 26.7525 60.6165 26.6249C60.8217 26.2585 60.2425 25.9379 60.0374 26.3076Z" fill="#46A358"/>
<path d="M61.6722 26.4646C61.6424 26.7198 61.6126 26.975 61.5829 27.2302C61.563 27.4069 61.6325 27.5803 61.8211 27.6293C61.9767 27.6686 62.2017 27.5704 62.2249 27.3938C62.2547 27.1386 62.2845 26.8834 62.3143 26.6282C62.3341 26.4515 62.2646 26.2781 62.076 26.2291C61.9171 26.1898 61.6921 26.2879 61.6722 26.4646Z" fill="#46A358"/>
<path d="M58.5546 28.1626C58.4884 28.372 58.3891 28.5617 58.27 28.745C58.0383 29.0983 58.6175 29.4157 58.8492 29.0623C59.0014 28.8333 59.1139 28.5846 59.1966 28.3229C59.2496 28.1561 59.1238 27.9663 58.9584 27.9238C58.773 27.8812 58.6076 27.9925 58.5546 28.1626Z" fill="#46A358"/>
<path d="M58.5351 30.9763C58.3928 31.2086 58.3233 31.4736 58.3366 31.7452C58.3564 32.1639 59.0183 32.1541 58.9985 31.7321C58.9918 31.5685 59.0249 31.4343 59.1143 31.2969C59.336 30.9338 58.7569 30.6164 58.5351 30.9763Z" fill="#46A358"/>
<path d="M60.2592 30.2565C60.1931 30.4757 60.1269 30.6982 60.064 30.9174C59.9448 31.3231 60.5869 31.4801 60.706 31.0777C60.7722 30.8585 60.8384 30.636 60.9013 30.4168C61.0204 30.0111 60.3784 29.8541 60.2592 30.2565Z" fill="#46A358"/>
<path d="M59.7132 33.4823C59.6437 33.7211 59.5776 33.9567 59.5081 34.1955C59.3922 34.6012 60.0343 34.7615 60.1501 34.3558C60.2196 34.117 60.2858 33.8814 60.3553 33.6426C60.4711 33.2402 59.8291 33.0799 59.7132 33.4823Z" fill="#46A358"/>
<path d="M61.8114 28.8366C61.7949 28.9839 61.7816 29.1278 61.7651 29.275C61.7452 29.4517 61.9405 29.5989 62.1026 29.5957C62.3012 29.5924 62.4071 29.4386 62.427 29.2619C62.4435 29.1147 62.4568 28.9708 62.4733 28.8235C62.4932 28.6469 62.2979 28.4997 62.1357 28.5029C61.9372 28.5095 61.8313 28.66 61.8114 28.8366Z" fill="#46A358"/>
<path d="M57.6545 35.3799C57.6214 35.4912 57.585 35.5991 57.5519 35.7104C57.4261 36.1128 58.0682 36.2731 58.1939 35.8707C58.227 35.7595 58.2634 35.6515 58.2965 35.5402C58.4223 35.1378 57.7802 34.9808 57.6545 35.3799Z" fill="#46A358"/>
<path d="M57.1216 38.7204C57.0521 38.9036 56.9792 39.0868 56.9097 39.27C56.8469 39.4336 56.9892 39.6266 57.148 39.6691C57.34 39.7182 57.4856 39.5972 57.5518 39.4336C57.6213 39.2504 57.6941 39.0672 57.7636 38.8839C57.8265 38.7204 57.6842 38.5273 57.5253 38.4848C57.3334 38.4357 57.1877 38.5535 57.1216 38.7204Z" fill="#46A358"/>
<path d="M59.7262 37.3888C59.7295 37.4968 59.7295 37.608 59.7328 37.716C59.7427 38.138 60.4046 38.1249 60.3947 37.7029C60.3914 37.5949 60.3914 37.4837 60.3881 37.3757C60.3782 36.9537 59.7163 36.9668 59.7262 37.3888Z" fill="#46A358"/>
<path d="M58.4921 41.7237C58.4755 41.8709 58.4623 42.0148 58.4457 42.1621C58.4259 42.3387 58.6211 42.486 58.7833 42.4827C58.9819 42.4794 59.0878 42.3257 59.1076 42.149C59.1242 42.0018 59.1374 41.8578 59.154 41.7106C59.1738 41.5339 58.9786 41.3867 58.8164 41.3899C58.6211 41.3932 58.5119 41.547 58.4921 41.7237Z" fill="#46A358"/>
<path d="M28.2594 28.0808C28.3157 28.2608 28.3752 28.444 28.4315 28.6239C28.5572 29.0263 29.1927 28.8398 29.0669 28.4374C29.0106 28.2575 28.9511 28.0743 28.8948 27.8943C28.7657 27.4919 28.1303 27.6784 28.2594 28.0808Z" fill="#46A358"/>
<path d="M28.941 27.3382C29.1628 27.6097 29.3878 27.8813 29.6095 28.1495C29.7221 28.287 29.9637 28.2575 30.0762 28.1397C30.2119 27.999 30.1788 27.8158 30.0663 27.6784C29.8445 27.4069 29.6195 27.1353 29.3977 26.867C29.2852 26.7296 29.0436 26.7591 28.9311 26.8769C28.7954 27.0143 28.8285 27.2008 28.941 27.3382Z" fill="#46A358"/>
<path d="M30.212 29.6415C30.4039 29.9098 30.5959 30.178 30.7845 30.443C31.0294 30.7866 31.5954 30.4463 31.3504 30.1028C31.1585 29.8345 30.9665 29.5662 30.7779 29.3012C30.5297 28.9577 29.9638 29.2947 30.212 29.6415Z" fill="#46A358"/>
<path d="M29.3981 30.4234C29.5503 30.6753 29.7026 30.9272 29.8548 31.1791C30.0732 31.539 30.6392 31.1987 30.4207 30.8389C30.2685 30.5869 30.1163 30.335 29.964 30.0831C29.7423 29.7199 29.1797 30.0602 29.3981 30.4234Z" fill="#46A358"/>
<path d="M30.8805 33.1225C31.0725 33.4628 31.2677 33.803 31.4597 34.1433C31.6682 34.5097 32.2341 34.1694 32.0256 33.803C31.8337 33.4628 31.6384 33.1225 31.4465 32.7823C31.2346 32.4158 30.672 32.7561 30.8805 33.1225Z" fill="#46A358"/>
<path d="M31.4665 32.1311C31.5989 32.3274 31.7313 32.527 31.8637 32.7233C32.0987 33.0734 32.6646 32.7331 32.4296 32.383C32.2972 32.1867 32.1649 31.9872 32.0325 31.7909C31.7942 31.4408 31.2283 31.7778 31.4665 32.1311Z" fill="#46A358"/>
<path d="M31.7742 30.7572C31.8834 30.9894 32.0687 31.1694 32.2905 31.3003C32.6611 31.5129 32.9822 30.9404 32.6115 30.7277C32.4791 30.6525 32.3997 30.551 32.3368 30.4169C32.2607 30.2566 32.0224 30.2239 31.8801 30.3089C31.7179 30.4104 31.6981 30.5968 31.7742 30.7572Z" fill="#46A358"/>
<path d="M29.2922 32.4747C29.3353 32.6546 29.375 32.8346 29.418 33.0178C29.4577 33.1912 29.6662 33.286 29.8284 33.237C30.0104 33.1846 30.0898 33.0014 30.0501 32.8313C30.0071 32.6513 29.9674 32.4714 29.9244 32.2882C29.8846 32.1148 29.6761 32.0199 29.514 32.069C29.3319 32.1213 29.2525 32.3045 29.2922 32.4747Z" fill="#46A358"/>
<path d="M31.3805 35.8935C31.5327 36.2011 31.6849 36.5086 31.8339 36.8129C31.9133 36.9732 32.1483 37.0059 32.2906 36.9208C32.4561 36.8227 32.4792 36.6297 32.3998 36.4694C32.2476 36.1618 32.0953 35.8543 31.9464 35.55C31.867 35.3897 31.632 35.357 31.4897 35.442C31.3242 35.5435 31.301 35.7365 31.3805 35.8935Z" fill="#46A358"/>
<path d="M33.8523 34.9678C33.9682 35.1837 34.0807 35.3997 34.1965 35.6156C34.3951 35.9885 34.9577 35.645 34.7625 35.2753C34.6466 35.0594 34.5341 34.8435 34.4183 34.6275C34.2164 34.2546 33.6538 34.5948 33.8523 34.9678Z" fill="#46A358"/>
<path d="M34.6073 39.6463C34.7033 39.8262 34.7993 40.0061 34.8985 40.1828C35.1004 40.5558 35.663 40.2123 35.4645 39.8426C35.3685 39.6626 35.2725 39.4827 35.1732 39.306C34.9714 38.933 34.4054 39.2733 34.6073 39.6463Z" fill="#46A358"/>
<path d="M35.7818 37.9875C35.8943 38.1675 36.0101 38.3474 36.1227 38.5273C36.3477 38.884 36.9136 38.5437 36.6886 38.1871C36.5761 38.0071 36.4602 37.8272 36.3477 37.6473C36.1193 37.2907 35.5534 37.6309 35.7818 37.9875Z" fill="#46A358"/>
<path d="M37.0994 43.0324C37.1921 43.196 37.288 43.3563 37.3807 43.5199C37.5925 43.8863 38.1551 43.5428 37.9466 43.1796C37.854 43.0161 37.758 42.8558 37.6653 42.6922C37.4535 42.3257 36.8876 42.666 37.0994 43.0324Z" fill="#46A358"/>
<path d="M26.4258 41.0106C26.6475 41.1153 26.8726 41.2167 27.0943 41.3214C27.4782 41.5014 27.8025 40.9288 27.4153 40.7489C27.1936 40.6442 26.9685 40.5428 26.7468 40.4381C26.3662 40.2614 26.0419 40.8307 26.4258 41.0106Z" fill="#46A358"/>
<path d="M28.5342 41.9625C28.7791 42.1359 29.024 42.3126 29.2656 42.486C29.4112 42.5906 29.6363 42.5023 29.7157 42.3584C29.8117 42.1882 29.7322 42.0181 29.5866 41.9134C29.3417 41.74 29.0968 41.5633 28.8552 41.3899C28.7096 41.2852 28.4845 41.3736 28.4051 41.5175C28.3125 41.6877 28.3919 41.8578 28.5342 41.9625Z" fill="#46A358"/>
<path d="M28.21 40.9615C28.3788 40.9975 28.5343 41.0531 28.6866 41.1381C29.0606 41.341 29.3816 40.7684 29.0076 40.5656C28.809 40.4576 28.5939 40.3758 28.3722 40.3268C27.9585 40.2352 27.793 40.8699 28.21 40.9615Z" fill="#46A358"/>
<path d="M30.1491 42.3584C30.298 42.4631 30.4469 42.5711 30.5959 42.6758C30.7415 42.7772 30.9665 42.6922 31.046 42.5482C31.1419 42.3781 31.0625 42.2047 30.9169 42.1032C30.768 41.9986 30.619 41.8906 30.4701 41.7859C30.3245 41.6845 30.0994 41.7695 30.02 41.9135C29.9273 42.0836 30.0035 42.2537 30.1491 42.3584Z" fill="#46A358"/>
<path d="M30.1029 43.3367C30.179 43.4447 30.2551 43.5526 30.3313 43.6606C30.5728 44.0041 31.1388 43.6672 30.8972 43.3204C30.8211 43.2124 30.7449 43.1044 30.6688 42.9965C30.4272 42.6497 29.858 42.9899 30.1029 43.3367Z" fill="#46A358"/>
<path d="M31.6023 43.8634C31.7512 43.9877 31.9001 44.1121 32.0524 44.2364C32.188 44.3509 32.3899 44.3607 32.519 44.2266C32.6381 44.1055 32.6481 43.8765 32.5091 43.7653C32.3601 43.6409 32.2112 43.5166 32.059 43.3923C31.9233 43.2778 31.7214 43.268 31.5923 43.4021C31.4732 43.5199 31.4633 43.7489 31.6023 43.8634Z" fill="#46A358"/>
<path d="M65.7629 34.2251C65.4088 34.1596 65.0579 34.1662 64.7071 34.2545C64.2935 34.3592 64.4821 34.9874 64.8958 34.8827C65.1274 34.8238 65.3624 34.814 65.5974 34.8598C66.0177 34.9383 66.1799 34.3036 65.7629 34.2251Z" fill="#46A358"/>
<path d="M63.4791 34.9023C63.3534 34.9972 63.2243 35.0888 63.0986 35.1836C62.9562 35.2883 62.8901 35.4716 62.9893 35.6351C63.0754 35.7758 63.3004 35.8511 63.4461 35.7431C63.5718 35.6482 63.7009 35.5566 63.8266 35.4617C63.969 35.357 64.0351 35.1738 63.9359 35.0103C63.8498 34.8696 63.6248 34.7976 63.4791 34.9023Z" fill="#46A358"/>
<path d="M63.5852 34.5817C64.0121 34.5719 63.9989 33.9175 63.572 33.9274C63.145 33.9372 63.1583 34.5915 63.5852 34.5817Z" fill="#46A358"/>
</g>
<g clip-path="url(#clip1_11_3173)">
<path d="M30.3859 47.6164C28.0447 53.631 26.3971 59.9163 25.8568 66.3709C25.3966 71.8879 25.5367 77.8381 28.5583 82.6511C28.9051 83.2028 29.7589 82.6748 29.412 82.1197C26.3804 77.2932 26.3871 71.238 26.9141 65.7244C27.501 59.5812 29.1285 53.5938 31.3564 47.8669C31.5898 47.261 30.6193 47.0173 30.3859 47.6164Z" fill="#727272"/>
<path d="M60.7885 46.6855C66.1146 50.7471 66.1213 58.1934 66.6949 64.3061C66.9851 67.3895 67.3853 70.4831 67.5254 73.5801C67.6554 76.4097 67.422 79.4153 65.2141 81.419C64.7339 81.8556 65.4576 82.5562 65.9345 82.123C67.8789 80.3596 68.4792 77.8346 68.5459 75.2724C68.6426 71.6238 68.0323 67.9142 67.6921 64.2892C67.0951 57.9192 67.0218 50.1819 61.4789 45.9544C60.9719 45.5652 60.2749 46.2929 60.7885 46.6855Z" fill="#727272"/>
<path d="M28.7584 82.8541C31.5832 83.8864 34.4714 84.1437 37.443 84.3975C40.7313 84.6784 44.0497 85.1015 47.3548 84.9831C50.7099 84.8646 54.075 84.3806 57.41 84.015C60.3282 83.6935 63.2231 83.2873 65.9445 82.1095C66.5281 81.8556 66.2513 80.8775 65.6577 81.1347C62.8362 82.3566 59.8413 82.7356 56.8164 83.0606C53.6681 83.399 50.4998 83.856 47.3348 83.9677C44.2332 84.0794 41.1249 83.6969 38.0366 83.4363C34.9583 83.1723 31.9367 82.9421 29.0052 81.8725C28.3982 81.6458 28.1581 82.6341 28.7584 82.8541Z" fill="#727272"/>
<path d="M30.6258 48.1851C32.9537 49.1497 35.3316 50.0026 37.8429 50.3039C40.4543 50.6153 43.1157 50.1685 45.7437 50.2362C47.2012 50.2734 48.5118 50.4731 49.9826 50.2599C51.2499 50.0737 52.5173 49.8165 53.7479 49.4611C56.2992 48.7232 58.7705 47.6943 61.2752 46.8075C61.8788 46.5943 61.5987 45.6195 60.9884 45.8327C56.0858 47.5691 51.4901 49.5965 46.1973 49.2479C43.9962 49.1023 41.805 49.4306 39.6105 49.4103C36.6557 49.3799 33.8142 48.4186 31.1061 47.2983C30.5225 47.0546 30.0289 47.938 30.6258 48.1851Z" fill="#727272"/>
<path d="M0.663355 51.2414C6.26628 52.1349 11.479 54.8257 15.3844 59.0193C19.163 63.0775 21.2875 68.4253 25.4096 72.1924C25.8865 72.6291 26.5836 71.898 26.1033 71.4614C21.7344 67.4675 19.5499 61.6898 15.3477 57.5368C11.4123 53.6479 6.32298 51.1195 0.910151 50.2564C0.276487 50.1549 0.026356 51.1398 0.663355 51.2414Z" fill="#727272"/>
<path d="M1.53758 49.4237C6.62357 48.2459 12.0297 48.9465 16.5988 51.5425C20.244 53.614 23.2356 56.8869 27.5879 57.3337C28.2282 57.398 28.2015 56.3826 27.5678 56.3183C22.6853 55.8174 19.1635 51.353 14.7612 49.5185C10.4689 47.7314 5.76312 47.4065 1.2541 48.449C0.623774 48.5945 0.910591 49.5693 1.53758 49.4237Z" fill="#727272"/>
<path d="M0.723598 48.7435C0.340064 49.2782 0.0932688 49.9044 0.0065569 50.5577C-0.0301289 50.8318 0.0865987 51.0992 0.37008 51.1737C0.60687 51.238 0.940378 51.0789 0.977064 50.8047C1.05377 50.2226 1.25721 49.7115 1.59739 49.2342C1.75747 49.0109 1.6174 48.669 1.40395 48.5438C1.14715 48.3982 0.880347 48.5235 0.723598 48.7435Z" fill="#727272"/>
<path d="M64.8103 49.6709C66.8781 45.6533 73.4482 45.1354 77.1568 46.9767C81.1755 48.9736 83.0298 53.8103 81.3823 58.0412C79.9482 61.7271 76.2629 63.5311 73.2314 65.6567C71.954 66.5536 70.5333 67.5622 69.6495 68.8856C68.7257 70.27 68.8457 72.03 67.9319 73.4109C67.5718 73.9559 68.4489 74.4433 68.8057 73.9051C69.3827 73.0352 69.5494 72.1078 69.8062 71.1128C70.1698 69.7217 70.8968 68.8281 71.9407 67.9176C73.7383 66.3505 75.8461 65.2167 77.7604 63.812C81.1488 61.3243 83.5267 57.7907 82.8964 53.3636C82.3194 49.3324 79.1244 45.9985 75.1791 45.264C71.2036 44.5228 65.9642 45.237 63.9332 49.1801C63.6364 49.7555 64.5102 50.2497 64.8103 49.6709Z" fill="#727272"/>
<path d="M65.8242 52.2263C67.2082 49.4238 70.3599 48.6995 73.2214 48.9228C75.129 49.0718 76.3063 49.8333 77.3035 51.4952C78.4074 53.3297 78.3541 54.8832 77.7304 56.8396C76.7499 59.9061 74.9823 61.3277 72.2642 62.7661C70.4833 63.7071 67.7652 64.9391 67.0548 67.0207C66.8447 67.6401 67.8152 67.8838 68.0253 67.2711C68.6723 65.3757 71.8473 64.1437 73.4815 63.2671C74.8989 62.5089 76.2263 61.6729 77.1834 60.3359C78.6976 58.2239 79.9416 54.7749 78.8443 52.2737C77.5036 49.2139 75.4525 47.8567 72.1775 47.8804C69.2627 47.9007 66.3245 48.9567 64.9537 51.7321C64.6636 52.3143 65.5374 52.8084 65.8242 52.2263Z" fill="#727272"/>
<path d="M47.3081 59.571C44.3666 60.0144 41.8819 62.2348 41.5851 65.3385C41.3016 68.2967 43.2693 72.1485 46.6111 71.9217C49.6593 71.7152 52.3674 68.7164 52.6475 65.7176C52.9577 62.4175 50.5198 59.5406 47.208 59.6861C46.5644 59.7132 46.5844 60.7286 47.228 60.7015C50.1329 60.5729 52.1339 63.2671 51.5903 66.1035C51.1501 68.3983 48.969 70.7134 46.591 70.9097C43.6695 71.15 42.1787 67.3964 42.6423 64.9594C43.0859 62.624 45.0569 60.9317 47.3281 60.5898C47.9551 60.4917 47.9451 59.4729 47.3081 59.571Z" fill="#727272"/>
<path d="M47.8815 60.0144C47.7048 57.8617 51.0365 54.5888 52.7041 57.0799C53.221 57.8516 53.7213 59.2224 53.5078 60.1735C53.2777 61.1923 52.2938 61.9538 51.5401 62.58C51.0432 62.9929 51.7702 63.6935 52.2605 63.284C53.4478 62.299 54.6684 61.1178 54.555 59.4288C54.4616 58.0479 53.7079 56.2269 52.5206 55.4688C49.986 53.8475 46.6776 57.5605 46.881 60.0381C46.9344 60.6846 47.9349 60.6676 47.8815 60.0144Z" fill="#727272"/>
<path d="M52.5274 63.5108C53.7814 62.756 57.0264 62.9557 56.6896 65.1355C56.3694 67.2136 53.718 67.2983 52.1472 67.3186C51.5035 67.3253 51.5235 68.3407 52.1672 68.334C54.3717 68.3069 58.227 67.6029 57.6767 64.4382C57.2432 61.9539 53.788 61.568 52.0038 62.6443C51.4501 62.9794 51.9704 63.8459 52.5274 63.5108Z" fill="#727272"/>
<path d="M51.5203 68.52C53.2745 69.3053 55.2489 71.6373 53.5814 73.5192C51.6304 75.7192 48.8089 73.5429 48.0885 71.4207C47.8784 70.8047 46.9179 71.089 47.128 71.7118C48.0618 74.4534 51.4269 76.8226 54.0216 74.4974C56.5429 72.2398 54.5385 68.7671 52.0072 67.6299C51.4236 67.3692 50.9333 68.256 51.5203 68.52Z" fill="#727272"/>
<path d="M46.6476 71.6745C46.7377 73.3804 46.2674 75.9189 44.0063 75.6143C42.9791 75.4755 42.1886 74.538 42.2353 73.4752C42.2754 72.5207 42.939 71.4071 43.3026 70.5339C43.5494 69.9382 42.6789 69.4373 42.4288 70.0397C41.8985 71.3191 40.978 72.8118 41.3182 74.257C41.595 75.4281 42.5055 76.3589 43.6728 76.5924C46.651 77.1915 47.7749 74.0743 47.6482 71.6508C47.6148 71.001 46.6143 71.0179 46.6476 71.6745Z" fill="#727272"/>
<path d="M43.1656 69.2715C41.3013 70.0533 38.4232 69.8536 37.7728 67.481C37.4894 66.4385 37.8062 65.2065 38.77 64.6412C39.7072 64.0929 40.9178 64.2385 41.9383 64.3637C42.5687 64.4415 42.8221 63.4566 42.1851 63.3787C40.7711 63.2061 39.1669 63.0538 37.9496 63.9745C36.9391 64.7394 36.5288 66.0797 36.7223 67.3151C37.2225 70.5069 40.9011 71.309 43.4491 70.2429C44.0428 69.9992 43.7626 69.021 43.1656 69.2715Z" fill="#727272"/>
<path d="M42.5452 63.4938C40.861 62.58 39.9805 59.2224 41.458 57.7703C43.399 55.8648 45.7835 58.5657 46.9575 60.0279C47.3644 60.5322 48.0514 59.7978 47.6512 59.2968C46.1171 57.3879 42.7987 54.4669 40.5308 57.2186C38.8633 59.2461 39.8605 63.1892 42.0583 64.384C42.6252 64.692 43.1155 63.8052 42.5452 63.4938Z" fill="#727272"/>
<path d="M44.153 70.9571C43.3626 71.7288 42.849 73.8171 44.0629 74.45C45.517 75.2116 46.1607 72.6223 46.3541 71.6881C46.4408 71.2617 45.7938 71.0958 45.7071 71.5223C45.6204 71.9454 45.5104 72.3617 45.3569 72.7679C45.2802 72.9676 45.1969 73.1672 45.0968 73.3568C44.9434 73.6513 44.8533 73.8408 44.4998 73.8002C43.546 73.6817 44.1997 71.8506 44.6366 71.4275C44.9434 71.1229 44.4631 70.6558 44.153 70.9571Z" fill="#727272"/>
<path d="M48.4519 71.0044C48.2818 71.9792 49.369 72.7441 50.1461 73.0927C50.9331 73.4448 52.0304 73.5632 52.7674 73.0115C53.4711 72.4835 53.3611 71.5256 53.0576 70.7946C52.644 69.7995 51.7936 69.1293 50.8098 68.7773C50.4029 68.6318 50.2428 69.2918 50.6463 69.4339C51.24 69.6472 51.7736 70.0059 52.1504 70.5272C52.2805 70.7099 52.3806 70.9029 52.4639 71.1127C52.6574 71.6069 52.6874 71.8303 52.3439 72.2601C52.0504 72.6257 51.897 72.7103 51.4501 72.7137C51.1699 72.7137 50.8798 72.6561 50.6163 72.5614C50.2128 72.4158 48.9955 71.7727 49.0989 71.177C49.1722 70.7438 48.5286 70.5746 48.4519 71.0044Z" fill="#727272"/>
<path d="M52.3203 66.6248C53.1574 66.838 53.9912 66.4725 54.6949 66.0223C55.2085 65.694 55.8855 65.0949 55.8255 64.401C55.7754 63.8223 55.2085 63.5481 54.7015 63.4872C53.8278 63.3789 52.9706 63.7613 52.2603 64.242C51.9034 64.4823 52.2503 65.0644 52.6071 64.8207C52.9773 64.5669 53.3709 64.3435 53.8077 64.2318C54.2113 64.1269 55.3852 63.9577 55.0284 64.8072C54.7149 65.562 53.1941 66.1475 52.4837 65.9681C52.0668 65.8632 51.9034 66.5198 52.3203 66.6248Z" fill="#727272"/>
<path d="M49.2088 60.3056C49.1554 59.7911 49.2621 59.28 49.629 58.9009C49.8958 58.62 50.5428 58.2477 50.923 58.4643C51.2598 58.6572 51.2365 59.4696 51.2365 59.8453C51.2332 60.3834 51.1198 60.8945 50.943 61.3988C50.7996 61.8084 51.4466 61.9708 51.59 61.5647C51.8768 60.7456 51.9769 59.8859 51.8401 59.0228C51.7468 58.4305 51.6467 57.8415 50.9897 57.7535C49.5356 57.5538 48.405 58.9246 48.5484 60.3225C48.5851 60.749 49.2521 60.7388 49.2088 60.3056Z" fill="#727272"/>
<path d="M43.0155 62.5698C42.4986 61.9098 42.055 60.7116 42.2285 59.8621C42.3318 59.3476 42.4519 59.1987 42.9788 59.1445C43.5058 59.0904 43.6359 59.2494 44.0161 59.5608C44.4029 59.8756 44.7798 60.2005 45.1633 60.5187C45.4935 60.7928 45.9571 60.3088 45.6236 60.0313C44.6831 59.2461 43.1723 57.4353 41.975 58.8128C41.0478 59.8824 41.6715 61.9402 42.4452 62.9252C42.7087 63.2603 43.2823 62.9116 43.0155 62.5698Z" fill="#727272"/>
<path d="M41.8182 65.2065C40.5175 64.6785 38.82 65.8529 39.0201 67.3354C39.2068 68.7401 41.438 69.2613 42.4419 68.4693C42.7754 68.2053 42.4319 67.6231 42.095 67.8905C41.5481 68.3237 40.1874 68.2087 39.7872 67.5622C39.2002 66.6246 40.6309 65.4434 41.4981 65.7988C41.8883 65.9579 42.2151 65.3689 41.8182 65.2065Z" fill="#727272"/>
</g>
<defs>
<clipPath id="clip0_11_3173">
<rect width="44" height="49" fill="white" transform="translate(24)"/>
</clipPath>
<clipPath id="clip1_11_3173">
<rect width="83" height="40" fill="white" transform="translate(0 45)"/>
</clipPath>
</defs>
</svg>
