<svg width="66" height="80" viewBox="0 0 66 80" fill="none" xmlns="http://www.w3.org/2000/svg">
<path d="M29.698 25.9317C30.302 26.1624 30.9797 25.8588 31.2101 25.2536L31.6031 24.2217H34.3756L34.7637 25.2503C34.9408 25.7195 35.3867 26.0088 35.8603 26.0088C35.9978 26.0088 36.1376 25.9844 36.2739 25.933C36.8793 25.7045 37.185 25.0284 36.9564 24.4228L34.2489 17.2483C34.245 17.2378 34.2408 17.227 34.2365 17.2167C34.0297 16.7133 33.5443 16.3881 33.0001 16.3881C32.9998 16.3881 32.9995 16.3881 32.9992 16.3881C32.4545 16.3884 31.9692 16.7144 31.7629 17.2183C31.7594 17.2273 31.7556 17.2361 31.7523 17.2453L29.02 24.4195C28.7895 25.0242 29.0931 25.7013 29.698 25.9317ZM33.4911 21.8781H32.4958L32.9956 20.5656L33.4911 21.8781Z" fill="#46A358"/>
<path d="M39.3301 26.0085C39.9774 26.0085 40.502 25.4839 40.502 24.8366V21.3327L43.2768 25.3508C43.6105 25.8333 44.1716 26.0377 44.7063 25.8708C45.2499 25.7013 45.601 25.1989 45.601 24.58L45.533 17.5486C45.5268 16.9053 45.0034 16.388 44.3615 16.388C44.3576 16.388 44.3537 16.388 44.3499 16.388C43.7026 16.3943 43.183 16.9241 43.1893 17.5711L43.224 21.1497L40.2945 16.9075C40.003 16.4855 39.4715 16.3024 38.9813 16.4547C38.4918 16.6074 38.1582 17.0607 38.1582 17.5735V24.8364C38.1582 25.4839 38.6827 26.0085 39.3301 26.0085Z" fill="#46A358"/>
<path d="M48.2482 26.0084C48.8956 26.0084 49.4201 25.4839 49.4201 24.8366V23.5698L51.6073 25.68C51.8346 25.8994 52.1279 26.0086 52.4207 26.0086C52.7278 26.0086 53.0343 25.8886 53.2642 25.6503C53.7135 25.1847 53.7003 24.4427 53.2345 23.9934L50.1904 21.0564L52.9556 18.5145C53.4321 18.0766 53.4634 17.3352 53.0253 16.8587C52.5874 16.3822 51.8459 16.3511 51.3695 16.7891L49.4199 18.5809V17.56C49.4199 16.9127 48.8954 16.3881 48.2481 16.3881C47.6007 16.3881 47.0762 16.9127 47.0762 17.56V24.8366C47.0763 25.4839 47.6009 26.0084 48.2482 26.0084Z" fill="#46A358"/>
<path d="M21.4082 26.0084C22.0555 26.0084 22.5801 25.4839 22.5801 24.8366V22.2453H25.272V24.8366C25.272 25.4839 25.7965 26.0084 26.4438 26.0084C27.0912 26.0084 27.6157 25.4839 27.6157 24.8366V17.56C27.6157 16.9127 27.0912 16.3881 26.4438 16.3881C25.7965 16.3881 25.272 16.9127 25.272 17.56V19.9016H22.5801V17.56C22.5801 16.9127 22.0555 16.3881 21.4082 16.3881C20.7609 16.3881 20.2363 16.9127 20.2363 17.56V24.8366C20.2363 25.4839 20.7609 26.0084 21.4082 26.0084Z" fill="#46A358"/>
<path d="M18.6513 31.64L20.7842 34.9061L20.7759 38.273C20.7743 38.9203 21.2978 39.4463 21.9448 39.4478H21.9478C22.5937 39.4478 23.1181 38.925 23.1196 38.2789L23.1279 34.908L25.244 31.657C25.5971 31.1145 25.4437 30.3886 24.9014 30.0356C24.359 29.6822 23.6329 29.8359 23.2799 30.3783L21.9553 32.4131L20.6135 30.3586C20.2596 29.8166 19.5338 29.6645 18.9917 30.0181C18.4499 30.372 18.2973 31.0981 18.6513 31.64Z" fill="#46A358"/>
<path d="M36.7277 36.0064C36.7277 37.1997 37.2938 38.1662 38.4104 38.8798C38.9988 39.2556 39.6618 39.4467 40.381 39.4478H40.3864C41.0038 39.4478 41.5843 39.3133 42.1118 39.0475C43.4118 38.3928 44.1277 37.3109 44.1277 36.0011V30.9992C44.1277 30.3519 43.6032 29.8273 42.9558 29.8273C42.3085 29.8273 41.7839 30.3519 41.7839 30.9992V36.0011C41.7839 36.3061 41.696 36.6326 41.0575 36.9542C40.8574 37.0551 40.6379 37.104 40.3866 37.104C40.3858 37.104 40.3849 37.104 40.3841 37.104C40.1143 37.1037 39.8813 37.0384 39.6721 36.9048C39.1172 36.5503 39.0713 36.2776 39.0713 36.0065V30.9994C39.0713 30.352 38.5468 29.8275 37.8994 29.8275C37.2521 29.8275 36.7275 30.352 36.7275 30.9994V36.0064H36.7277Z" fill="#46A358"/>
<path d="M13.7627 18.7319H14.5921V24.8366C14.5921 25.4839 15.1166 26.0084 15.764 26.0084C16.4113 26.0084 16.9358 25.4839 16.9358 24.8366V18.7319H17.7813C18.4286 18.7319 18.9532 18.2073 18.9532 17.56C18.9532 16.9127 18.4286 16.3881 17.7813 16.3881H13.7627C13.1154 16.3881 12.5908 16.9127 12.5908 17.56C12.5908 18.2073 13.1154 18.7319 13.7627 18.7319Z" fill="#46A358"/>
<path d="M30.6305 29.8275C27.9781 29.8275 25.8203 31.9855 25.8203 34.6376C25.8203 37.2898 27.9783 39.4478 30.6305 39.4478C33.283 39.4478 35.4408 37.2898 35.4408 34.6376C35.4408 31.9855 33.2828 29.8275 30.6305 29.8275ZM30.6305 37.104C29.2705 37.104 28.1641 35.9976 28.1641 34.6376C28.1641 33.2776 29.2705 32.1712 30.6305 32.1712C31.9905 32.1712 33.097 33.2776 33.097 34.6376C33.097 35.9976 31.9905 37.104 30.6305 37.104Z" fill="#46A358"/>
<path d="M63.7969 28.0734L60.347 24.4797V9.46422C60.347 7.37484 58.6472 5.67484 56.5577 5.67484H42.2933C42.2897 5.67109 42.2867 5.66687 42.2831 5.66313L39.5102 2.77469C37.7923 0.985469 35.4803 0 33 0C30.5197 0 28.2077 0.985469 26.49 2.77469L23.7056 5.675H9.44234C7.35281 5.675 5.65297 7.375 5.65297 9.46437V24.48L2.20313 28.0734C1.05203 29.2725 0.417969 30.8483 0.417969 32.5103V76.2106C0.417969 78.3002 2.11797 80 4.20734 80H61.7925C63.8819 80 65.5819 78.3002 65.5819 76.2106V32.5103C65.5819 30.8483 64.948 29.2725 63.7969 28.0734ZM62.1061 29.6967C62.8361 30.457 63.2381 31.4564 63.2381 32.5105V35.168L60.3469 38.1797V27.8641L62.1061 29.6967ZM28.1806 4.39781C29.4523 3.07328 31.1637 2.34375 33 2.34375C34.8363 2.34375 36.5477 3.07328 37.8194 4.39781L39.0453 5.67484H26.9547L28.1806 4.39781ZM9.44234 8.01859H56.5575C57.3547 8.01859 58.0031 8.66703 58.0031 9.46422V40.6209L45.5639 53.5784L39.5098 47.2722C37.7922 45.483 35.4802 44.4975 32.9998 44.4975C30.5195 44.4975 28.2075 45.483 26.4898 47.2722L20.4358 53.5784L7.99656 40.6209V9.46422C7.99672 8.66719 8.64531 8.01859 9.44234 8.01859ZM18.8116 55.2706L2.76188 71.9891V38.5522L18.8116 55.2706ZM2.76188 32.5103C2.76188 31.4562 3.16391 30.4569 3.89391 29.6966L5.65313 27.8641V38.1794L2.76188 35.1677V32.5103ZM61.7925 77.6562H4.2075C3.41031 77.6562 2.76188 77.0078 2.76188 76.2106V75.3733L28.1808 48.8953C29.4525 47.5706 31.1639 46.8412 33.0002 46.8412C34.8364 46.8412 36.5478 47.5708 37.8195 48.8953L47.2317 58.6997C47.68 59.1667 48.4217 59.1814 48.8886 58.7334C49.3553 58.2853 49.3706 57.5434 48.9223 57.0766L47.1886 55.2706L63.2383 38.5522V71.9891L52.6914 61.0028C52.2431 60.5359 51.5014 60.5209 51.0345 60.9691C50.5678 61.4172 50.5525 62.1591 51.0008 62.6259L63.2383 75.3733V76.2105C63.2381 77.0078 62.5897 77.6562 61.7925 77.6562Z" fill="#46A358"/>
</svg>
